<mxfile host="app.diagrams.net" agent="Mozilla/5.0 (Macintosh; Intel Mac OS X 10_15_7) AppleWebKit/537.36 (KHTML, like Gecko) Chrome/129.0.0.0 Safari/537.36" version="24.8.2">
  <diagram id="C5RBs43oDa-KdzZeNtuy" name="Page-1">
    <mxGraphModel dx="1990" dy="2246" grid="1" gridSize="10" guides="1" tooltips="1" connect="1" arrows="1" fold="1" page="1" pageScale="1" pageWidth="827" pageHeight="1169" math="0" shadow="0">
      <root>
        <mxCell id="WIyWlLk6GJQsqaUBKTNV-0" />
        <mxCell id="WIyWlLk6GJQsqaUBKTNV-1" parent="WIyWlLk6GJQsqaUBKTNV-0" />
        <mxCell id="_uubgcIsNn2fI4v9BpKU-34" value="" style="ellipse;whiteSpace=wrap;html=1;" vertex="1" parent="WIyWlLk6GJQsqaUBKTNV-1">
          <mxGeometry x="105" y="-195" width="1000" height="1000" as="geometry" />
        </mxCell>
        <mxCell id="_uubgcIsNn2fI4v9BpKU-33" value="" style="ellipse;whiteSpace=wrap;html=1;" vertex="1" parent="WIyWlLk6GJQsqaUBKTNV-1">
          <mxGeometry x="285" y="-22.5" width="625" height="625" as="geometry" />
        </mxCell>
        <mxCell id="_uubgcIsNn2fI4v9BpKU-31" value="" style="ellipse;whiteSpace=wrap;html=1;" vertex="1" parent="WIyWlLk6GJQsqaUBKTNV-1">
          <mxGeometry x="465" y="160" width="265" height="260" as="geometry" />
        </mxCell>
        <mxCell id="_uubgcIsNn2fI4v9BpKU-6" value="«interface»&lt;br&gt;&lt;b&gt;IMetadataService&lt;/b&gt;" style="html=1;whiteSpace=wrap;" vertex="1" parent="WIyWlLk6GJQsqaUBKTNV-1">
          <mxGeometry x="340" y="200" width="110" height="50" as="geometry" />
        </mxCell>
        <mxCell id="_uubgcIsNn2fI4v9BpKU-29" style="edgeStyle=orthogonalEdgeStyle;rounded=0;orthogonalLoop=1;jettySize=auto;html=1;exitX=1;exitY=0.25;exitDx=0;exitDy=0;entryX=0;entryY=0.75;entryDx=0;entryDy=0;" edge="1" parent="WIyWlLk6GJQsqaUBKTNV-1" source="_uubgcIsNn2fI4v9BpKU-10" target="_uubgcIsNn2fI4v9BpKU-19">
          <mxGeometry relative="1" as="geometry" />
        </mxCell>
        <mxCell id="_uubgcIsNn2fI4v9BpKU-10" value="Use Case" style="swimlane;fontStyle=1;align=center;verticalAlign=top;childLayout=stackLayout;horizontal=1;startSize=26;horizontalStack=0;resizeParent=1;resizeParentMax=0;resizeLast=0;collapsible=1;marginBottom=0;whiteSpace=wrap;html=1;" vertex="1" parent="WIyWlLk6GJQsqaUBKTNV-1">
          <mxGeometry x="310" y="280" width="130" height="60" as="geometry" />
        </mxCell>
        <mxCell id="_uubgcIsNn2fI4v9BpKU-12" value="" style="line;strokeWidth=1;fillColor=none;align=left;verticalAlign=middle;spacingTop=-1;spacingLeft=3;spacingRight=3;rotatable=0;labelPosition=right;points=[];portConstraint=eastwest;strokeColor=inherit;" vertex="1" parent="_uubgcIsNn2fI4v9BpKU-10">
          <mxGeometry y="26" width="130" height="8" as="geometry" />
        </mxCell>
        <mxCell id="_uubgcIsNn2fI4v9BpKU-13" value="+ execute()" style="text;strokeColor=none;fillColor=none;align=left;verticalAlign=top;spacingLeft=4;spacingRight=4;overflow=hidden;rotatable=0;points=[[0,0.5],[1,0.5]];portConstraint=eastwest;whiteSpace=wrap;html=1;" vertex="1" parent="_uubgcIsNn2fI4v9BpKU-10">
          <mxGeometry y="34" width="130" height="26" as="geometry" />
        </mxCell>
        <mxCell id="_uubgcIsNn2fI4v9BpKU-24" style="edgeStyle=orthogonalEdgeStyle;rounded=0;orthogonalLoop=1;jettySize=auto;html=1;exitX=0.5;exitY=0;exitDx=0;exitDy=0;entryX=0.5;entryY=1;entryDx=0;entryDy=0;" edge="1" parent="WIyWlLk6GJQsqaUBKTNV-1" source="_uubgcIsNn2fI4v9BpKU-18" target="_uubgcIsNn2fI4v9BpKU-19">
          <mxGeometry relative="1" as="geometry" />
        </mxCell>
        <mxCell id="_uubgcIsNn2fI4v9BpKU-18" value="«interface»&lt;br&gt;&lt;b&gt;IMetadataRepository&lt;/b&gt;" style="html=1;whiteSpace=wrap;" vertex="1" parent="WIyWlLk6GJQsqaUBKTNV-1">
          <mxGeometry x="540" y="290" width="130" height="60" as="geometry" />
        </mxCell>
        <mxCell id="_uubgcIsNn2fI4v9BpKU-19" value="Metadata" style="html=1;whiteSpace=wrap;" vertex="1" parent="WIyWlLk6GJQsqaUBKTNV-1">
          <mxGeometry x="550" y="230" width="110" height="50" as="geometry" />
        </mxCell>
        <mxCell id="_uubgcIsNn2fI4v9BpKU-20" value="EFMetadataRepository" style="html=1;whiteSpace=wrap;" vertex="1" parent="WIyWlLk6GJQsqaUBKTNV-1">
          <mxGeometry x="940" y="280" width="133" height="50" as="geometry" />
        </mxCell>
        <mxCell id="_uubgcIsNn2fI4v9BpKU-22" value="" style="endArrow=block;dashed=1;endFill=0;endSize=12;html=1;rounded=0;exitX=0;exitY=0.5;exitDx=0;exitDy=0;entryX=1;entryY=0.5;entryDx=0;entryDy=0;" edge="1" parent="WIyWlLk6GJQsqaUBKTNV-1" source="_uubgcIsNn2fI4v9BpKU-20" target="_uubgcIsNn2fI4v9BpKU-18">
          <mxGeometry width="160" relative="1" as="geometry">
            <mxPoint x="540" y="350" as="sourcePoint" />
            <mxPoint x="700" y="350" as="targetPoint" />
          </mxGeometry>
        </mxCell>
        <mxCell id="_uubgcIsNn2fI4v9BpKU-23" value="Metadata" style="html=1;whiteSpace=wrap;" vertex="1" parent="WIyWlLk6GJQsqaUBKTNV-1">
          <mxGeometry x="140" y="265" width="110" height="50" as="geometry" />
        </mxCell>
        <mxCell id="_uubgcIsNn2fI4v9BpKU-25" value="" style="endArrow=block;dashed=1;endFill=0;endSize=12;html=1;rounded=0;exitX=1;exitY=0.5;exitDx=0;exitDy=0;entryX=0;entryY=0.5;entryDx=0;entryDy=0;" edge="1" parent="WIyWlLk6GJQsqaUBKTNV-1" source="_uubgcIsNn2fI4v9BpKU-23" target="_uubgcIsNn2fI4v9BpKU-6">
          <mxGeometry width="160" relative="1" as="geometry">
            <mxPoint x="950" y="315" as="sourcePoint" />
            <mxPoint x="670" y="345" as="targetPoint" />
          </mxGeometry>
        </mxCell>
        <mxCell id="_uubgcIsNn2fI4v9BpKU-26" style="edgeStyle=orthogonalEdgeStyle;rounded=0;orthogonalLoop=1;jettySize=auto;html=1;exitX=1;exitY=0.75;exitDx=0;exitDy=0;entryX=0.001;entryY=0.386;entryDx=0;entryDy=0;entryPerimeter=0;" edge="1" parent="WIyWlLk6GJQsqaUBKTNV-1" source="_uubgcIsNn2fI4v9BpKU-23" target="_uubgcIsNn2fI4v9BpKU-10">
          <mxGeometry relative="1" as="geometry" />
        </mxCell>
        <mxCell id="_uubgcIsNn2fI4v9BpKU-28" style="edgeStyle=orthogonalEdgeStyle;rounded=0;orthogonalLoop=1;jettySize=auto;html=1;exitX=1;exitY=0.5;exitDx=0;exitDy=0;entryX=0;entryY=0.75;entryDx=0;entryDy=0;" edge="1" parent="WIyWlLk6GJQsqaUBKTNV-1" source="_uubgcIsNn2fI4v9BpKU-13" target="_uubgcIsNn2fI4v9BpKU-18">
          <mxGeometry relative="1" as="geometry" />
        </mxCell>
        <mxCell id="_uubgcIsNn2fI4v9BpKU-35" value="" style="shape=cylinder3;whiteSpace=wrap;html=1;boundedLbl=1;backgroundOutline=1;size=15;" vertex="1" parent="WIyWlLk6GJQsqaUBKTNV-1">
          <mxGeometry x="1150" y="253" width="60" height="80" as="geometry" />
        </mxCell>
        <mxCell id="_uubgcIsNn2fI4v9BpKU-36" style="edgeStyle=orthogonalEdgeStyle;rounded=0;orthogonalLoop=1;jettySize=auto;html=1;exitX=1;exitY=0.5;exitDx=0;exitDy=0;entryX=0;entryY=0;entryDx=0;entryDy=52.5;entryPerimeter=0;" edge="1" parent="WIyWlLk6GJQsqaUBKTNV-1" source="_uubgcIsNn2fI4v9BpKU-20" target="_uubgcIsNn2fI4v9BpKU-35">
          <mxGeometry relative="1" as="geometry" />
        </mxCell>
        <mxCell id="_uubgcIsNn2fI4v9BpKU-38" style="edgeStyle=orthogonalEdgeStyle;rounded=0;orthogonalLoop=1;jettySize=auto;html=1;exitX=1;exitY=0.75;exitDx=0;exitDy=0;entryX=0;entryY=0.25;entryDx=0;entryDy=0;" edge="1" parent="WIyWlLk6GJQsqaUBKTNV-1" source="_uubgcIsNn2fI4v9BpKU-37" target="_uubgcIsNn2fI4v9BpKU-6">
          <mxGeometry relative="1" as="geometry" />
        </mxCell>
        <mxCell id="_uubgcIsNn2fI4v9BpKU-37" value="Dalux Web Service" style="rounded=0;whiteSpace=wrap;html=1;" vertex="1" parent="WIyWlLk6GJQsqaUBKTNV-1">
          <mxGeometry x="10" y="-50" width="120" height="60" as="geometry" />
        </mxCell>
        <mxCell id="_uubgcIsNn2fI4v9BpKU-39" value="Domain" style="text;html=1;align=center;verticalAlign=middle;whiteSpace=wrap;rounded=0;" vertex="1" parent="WIyWlLk6GJQsqaUBKTNV-1">
          <mxGeometry x="567.5" y="180" width="60" height="30" as="geometry" />
        </mxCell>
        <mxCell id="_uubgcIsNn2fI4v9BpKU-40" value="Application&lt;br&gt;Use Cases" style="text;html=1;align=center;verticalAlign=middle;whiteSpace=wrap;rounded=0;" vertex="1" parent="WIyWlLk6GJQsqaUBKTNV-1">
          <mxGeometry x="567.5" y="10" width="60" height="30" as="geometry" />
        </mxCell>
        <mxCell id="_uubgcIsNn2fI4v9BpKU-41" value="Insfrastructure&lt;br&gt;-&lt;div&gt;.NET DI&lt;br&gt;EF&lt;/div&gt;" style="text;html=1;align=center;verticalAlign=middle;whiteSpace=wrap;rounded=0;" vertex="1" parent="WIyWlLk6GJQsqaUBKTNV-1">
          <mxGeometry x="567.5" y="-170" width="60" height="30" as="geometry" />
        </mxCell>
      </root>
    </mxGraphModel>
  </diagram>
</mxfile>
